<?xml version="1.0" encoding="utf-8"?>
<!-- Generator: Adobe Illustrator 28.0.0, SVG Export Plug-In . SVG Version: 6.00 Build 0)  -->
<svg version="1.1" xmlns="http://www.w3.org/2000/svg" xmlns:xlink="http://www.w3.org/1999/xlink" x="0px" y="0px"
	 viewBox="0 0 390.01 246.2" style="enable-background:new 0 0 390.01 246.2;" xml:space="preserve">
<style type="text/css">
	.st0{display:none;}
	.st1{display:inline;fill:#ffffff;}
	.st2{fill:none;stroke:#ffffff;stroke-miterlimit:10;}
	.st3{fill:none;stroke:#ffffff;stroke-miterlimit:10;}
</style>
<g id="BACKGROUND" class="st0">
	<rect y="0" class="st1" width="500" height="500"/>
</g>
<g id="OBJECTS">
	<g>
		<g>
			<g>
				<path class="st2" d="M106.58,125.19c0,0-8.09-59.12,11.99-81.71c20.08-22.59,89.8-51.31,124.1-12.83
					c34.3,38.48,33.74,83.1,33.74,83.1"/>
			</g>
			<g>
				<path class="st2" d="M24.32,133.83c-1.93,5.03,3.07,81.15,106.25,85.33c103.18,4.18,141.11-57.73,179.31-72.79
					c38.21-15.06,62.47-12.27,57.45-16.45c-5.02-4.18-75.02-23.7-162.58-13.11C117.18,127.42,27.1,126.58,24.32,133.83z"/>
			</g>
			<g>
				<path class="st3" d="M104.35,108.18c0,0,82.55-29.84,171.5-7.81l0.56,13.39c0,0-100.31-13.04-169.83,11.43L104.35,108.18z"/>
			</g>
			<g>
				<path class="st3" d="M279.64,182.65c-1.19,0-2.24-0.87-2.42-2.08c-0.21-1.34,0.71-2.59,2.05-2.8
					c42.23-6.52,81.61-41.95,85.09-46.11c0.43-0.72,1.21-1.2,2.11-1.2c1.36,0,2.46,1.1,2.46,2.46c0,4-45.2,42.96-88.91,49.7
					C279.89,182.64,279.76,182.65,279.64,182.65z"/>
			</g>
		</g>
	</g>
</g>
</svg>
