<?xml version="1.0" encoding="utf-8"?>
<!-- Generator: Adobe Illustrator 28.0.0, SVG Export Plug-In . SVG Version: 6.00 Build 0)  -->
<svg version="1.1" xmlns="http://www.w3.org/2000/svg" xmlns:xlink="http://www.w3.org/1999/xlink" x="0px" y="0px"
	 viewBox="0 0 500 500" style="enable-background:new 0 0 500 500;" xml:space="preserve">
<style type="text/css">
	.st0{fill:#B2B2B2;stroke:#263238;stroke-linecap:round;stroke-linejoin:round;stroke-miterlimit:10;}
	.st1{fill:none;stroke:#263238;stroke-linecap:round;stroke-linejoin:round;stroke-miterlimit:10;}
	.st2{stroke:#263238;stroke-linecap:round;stroke-linejoin:round;stroke-miterlimit:10;}
	.st3{fill:#263238;}
	.st4{stroke:#FFFFFF;stroke-width:0.5;stroke-miterlimit:10;}
	.st5{fill:#FFFFFF;stroke:#263238;stroke-linecap:round;stroke-linejoin:round;stroke-miterlimit:10;}
</style>
<g id="Background_Simple">
</g>
<g id="Clouds_1_">
</g>
<g id="Umbrella">
	<path class="st0" d="M395.85,221.19C316.77,158.23,200.6,117,200.6,117C140.64,90.4,53.32,89.65,53.32,89.65s9.37,2.25,2.62,22.86
		c-6.75,20.61-20.99,31.85-20.99,31.85s80.2,46.47,96.69,95.94c0,0,80.2,23.23,151.4,83.57c0,0,71.58,2.62,138.28,42.35
		c0,0,25.48-44.22,56.59-35.6C439.69,265.03,395.85,221.19,395.85,221.19z"/>
	<path d="M147.73,100.49C99.48,90.05,53.32,89.65,53.32,89.65s9.37,2.25,2.62,22.86c-6.75,20.61-20.99,31.85-20.99,31.85l64.93-26.9
		L147.73,100.49z"/>
	<path class="st1" d="M147.73,100.49C99.48,90.05,53.32,89.65,53.32,89.65s9.37,2.25,2.62,22.86
		c-6.75,20.61-20.99,31.85-20.99,31.85l64.93-26.9L147.73,100.49z"/>
	<path class="st2" d="M294.48,298.41c3.67-7.95,17.77-85.71,18.73-98.18c0.72-9.31-0.95-25.65-1.85-33.34
		c-20.21-10.83-39.7-20.14-56.55-27.68c-14.52,9.27-58.12,36.98-58.12,36.98l-64.23,64.37c8.6,2.62,83.52,26.53,150.51,83.27
		C285.93,317.93,291.68,304.48,294.48,298.41z"/>
	<path class="st1" d="M294.48,298.41c3.67-7.95,17.77-85.71,18.73-98.18c0.72-9.31-0.95-25.65-1.85-33.34
		c-20.21-10.83-39.7-20.14-56.55-27.68c-14.52,9.27-58.12,36.98-58.12,36.98l-64.23,64.37c8.6,2.62,83.52,26.53,150.51,83.27
		C285.93,317.93,291.68,304.48,294.48,298.41z"/>
	<path d="M477.92,330.62c-38.23-65.58-82.07-109.43-82.07-109.43c-3.76-3-7.61-5.94-11.52-8.84c4.74,11.27,15.04,36.28,22.72,58.68
		c9.08,26.49,14.15,68.65,14.93,94.13C426.1,358.47,449.69,322.79,477.92,330.62z"/>
	<path class="st1" d="M477.92,330.62c-38.23-65.58-82.07-109.43-82.07-109.43c-3.76-3-7.61-5.94-11.52-8.84
		c4.74,11.27,15.04,36.28,22.72,58.68c9.08,26.49,14.15,68.65,14.93,94.13C426.1,358.47,449.69,322.79,477.92,330.62z"/>
	<g>
		<g>
			<path class="st3" d="M421.38,370.08c-0.54,0-0.99-0.44-1-0.98l-0.05-2.87c2.87-73.44-37.03-153.67-37.44-154.48
				c-0.25-0.49-0.05-1.09,0.44-1.34c0.5-0.25,1.1-0.05,1.34,0.44c0.41,0.81,40.53,81.49,37.65,155.4l0.05,2.81
				c0.01,0.55-0.43,1.01-0.98,1.02C421.39,370.08,421.39,370.08,421.38,370.08z"/>
		</g>
		<g>
			<path class="st3" d="M281.96,326.87c-0.16,0-0.31-0.04-0.46-0.11c-0.49-0.25-0.68-0.86-0.43-1.35
				c0.08-0.15,8.01-15.48,12.38-27.41c4.58-12.51,17.43-79.51,18.04-97.11c0.63-18.1-1.5-36.93-1.52-37.11
				c-0.06-0.55,0.33-1.04,0.88-1.11c0.55-0.06,1.04,0.33,1.11,0.88c0.02,0.19,2.17,19.16,1.53,37.41
				c-0.62,17.71-13.55,85.13-18.16,97.73c-4.41,12.06-12.4,27.49-12.48,27.65C282.67,326.67,282.32,326.87,281.96,326.87z"/>
		</g>
		<g>
			<path class="st3" d="M129.81,242.8c-0.26,0-0.51-0.1-0.71-0.29c-0.39-0.39-0.39-1.02,0-1.41c2.31-2.31,56.71-56.68,67.59-64.92
				c10.85-8.21,31.68-21.98,31.89-22.11l30.08-17.32c0.48-0.27,1.09-0.11,1.37,0.37c0.28,0.48,0.11,1.09-0.37,1.37l-30.03,17.29
				c-0.16,0.11-20.93,13.83-31.73,22.01c-10.77,8.15-66.82,64.17-67.39,64.74C130.32,242.7,130.06,242.8,129.81,242.8z"/>
		</g>
		<g>
			<path class="st3" d="M31.83,147.19c-0.38,0-0.74-0.21-0.91-0.58c-0.23-0.5-0.02-1.1,0.48-1.33
				c0.74-0.34,74.04-34.52,121.25-46.54c0.53-0.14,1.08,0.19,1.22,0.72c0.14,0.54-0.19,1.08-0.72,1.22
				c-47.02,11.97-120.16,46.07-120.89,46.41C32.11,147.16,31.97,147.19,31.83,147.19z"/>
		</g>
	</g>
	<g>
		<path class="st4" d="M170.04,384.18l-5.29-2.84l158.5-293.78c0.63-1.17,2.09-1.6,3.25-0.98l0,0c1.17,0.63,1.61,2.08,0.98,3.25
			L170.04,384.18z"/>
	</g>
	<g>
		<path d="M115.04,461.42c-4.81,0-9.57-1.25-13.88-3.69c-7.01-3.98-11.99-10.78-13.67-18.66c-1.68-7.88,0.1-16.12,4.87-22.61
			l14.92-20.26c1.96-2.67,5.72-3.24,8.39-1.28c2.67,1.96,3.24,5.72,1.28,8.39l-14.92,20.26c-2.75,3.73-3.77,8.46-2.8,12.99
			c0.97,4.53,3.83,8.44,7.86,10.72c3.83,2.17,8.27,2.7,12.5,1.48c4.23-1.22,7.71-4.03,9.79-7.91l32.73-60.94
			c1.57-2.92,5.21-4.01,8.12-2.45c2.92,1.57,4.01,5.21,2.45,8.12l-32.73,60.94c-3.63,6.75-9.68,11.63-17.04,13.76
			C120.32,461.04,117.67,461.42,115.04,461.42z"/>
	</g>
	<g>
		<g>
			<g>
				<path class="st3" d="M198.55,120.55c-0.25,0-0.5-0.09-0.69-0.27c-0.4-0.38-0.42-1.01-0.04-1.41l5.42-5.71
					c0.38-0.4,1.01-0.42,1.41-0.04c0.4,0.38,0.42,1.01,0.04,1.41l-5.42,5.71C199.08,120.45,198.82,120.55,198.55,120.55z"/>
			</g>
			<g>
				<path class="st3" d="M57.65,90.25H48.8c-0.55,0-1-0.45-1-1c0-0.55,0.45-1,1-1h8.85c0.55,0,1,0.45,1,1
					C58.65,89.8,58.21,90.25,57.65,90.25z"/>
			</g>
			<g>
				<path class="st3" d="M394.41,225.62c-0.13,0-0.26-0.03-0.39-0.08c-0.51-0.21-0.75-0.8-0.54-1.31l1.44-3.43
					c0.21-0.51,0.8-0.75,1.31-0.54c0.51,0.21,0.75,0.8,0.54,1.31l-1.44,3.43C395.17,225.39,394.8,225.62,394.41,225.62z"/>
			</g>
			<g>
				<path class="st3" d="M477.92,333.03c-0.4,0-0.78-0.24-0.93-0.64l-2.57-6.57c-0.2-0.51,0.05-1.09,0.57-1.3
					c0.51-0.2,1.09,0.05,1.3,0.57l2.57,6.57c0.2,0.51-0.05,1.09-0.57,1.3C478.16,333.01,478.04,333.03,477.92,333.03z"/>
			</g>
		</g>
		<path class="st2" d="M53.32,89.65c0,0,87.32,0.75,147.28,27.36c0,0,116.17,41.22,195.25,104.18c0,0,43.85,43.85,82.07,109.43
			c0,0-6-16.49-19.49-53.22c-13.49-36.73-40.1-77.95-43.1-81.32c-3-3.37-23.98-21.74-29.61-30.73c-5.62-8.99-5.62-8.99-5.62-8.99
			s-4.12-15.37-13.49-21.74c-9.37-6.37-40.47-17.24-63.71-33.35c-23.23-16.11-30.73-16.86-36.35-16.86
			c-5.62,0-25.86-0.37-55.09-8.62s-51.72-8.62-76.45-6C110.28,72.41,53.32,89.65,53.32,89.65z"/>
		<path class="st5" d="M211.47,75.78c-29.23-8.24-51.72-8.62-76.45-6c-24.73,2.62-81.7,19.86-81.7,19.86S140.64,90.4,200.6,117
			c0,0,28.61-26.97,65.96-32.6C260.93,84.4,240.7,84.03,211.47,75.78z"/>
		<path class="st5" d="M395.85,221.19c0,0,43.85,43.85,82.07,109.43c0,0-6-16.49-19.49-53.22c-13.49-36.73-40.1-77.95-43.1-81.32
			c-3-3.37-23.98-21.74-29.61-30.73c-5.62-8.99-5.62-8.99-5.62-8.99s15.79,32.81,17.5,47.36
			C399.32,218.27,395.85,221.19,395.85,221.19z"/>
	</g>
	<path class="st3" d="M288,171.89l99.05,44.75l0.41-0.91l-98.96-44.7c0.04-0.17,0.05-0.35,0.04-0.53l43.79,8.06
		c-0.87-0.5-1.74-1-2.6-1.5l-41.46-7.63c-0.25-0.55-0.67-1.12-1.21-1.66l15.36-5.6c-0.4-0.21-0.8-0.42-1.21-0.62l-15.01,5.47
		c-0.67-0.52-1.46-1.01-2.34-1.42c-1.48-0.68-2.95-1.03-4.2-1.05l-18.21-22.35c-0.69-0.31-1.37-0.62-2.05-0.93l19.05,23.38
		c-0.32,0.06-0.61,0.15-0.87,0.27l-62.74-42.52c-1.5-0.59-2.89-1.13-4.18-1.62l66.08,44.78c-0.08,0.1-0.15,0.21-0.2,0.33
		c-0.12,0.25-0.16,0.52-0.16,0.8l-46.99-12.76l-0.26,0.96l47.53,12.9c0.19,0.41,0.47,0.84,0.83,1.25l-4.76,8.3
		c-1.2,2.09-0.5,4.76,1.58,5.99l0,0c2.12,1.26,4.87,0.54,6.09-1.61l5.12-9.01l26.96,28.19l0.72-0.69l-26.49-27.69
		C287.25,172.4,287.69,172.19,288,171.89z"/>
</g>
</svg>
